<svg width="129" height="44" viewBox="0 0 129 44" fill="none" xmlns="http://www.w3.org/2000/svg">
<rect x="0.5" y="0.5" width="128" height="43" fill="white" stroke="#CCCCCC"/>
<path d="M101.613 11.2026H95.9304V15.1836H101.613V11.2026Z" fill="#6DD7BF"/>
<path d="M46.1036 41C43.9443 40.9836 41.7933 40.7368 39.6875 40.2635C37.3393 39.7545 35.068 38.9385 32.9354 37.837C32.7682 37.754 32.6262 37.6527 32.4674 37.5698C32.2485 37.4536 32.0629 37.2747 32.2251 37.0524C32.2953 36.9807 32.3822 36.9265 32.4774 36.8937C32.5727 36.8608 32.673 36.8504 32.7733 36.8631C33.5454 37.029 34.2992 37.2796 35.0763 37.4206C36.6457 37.7026 38.2167 38.0095 39.8011 38.1654C41.5276 38.352 43.2657 38.428 45.0022 38.3925C46.7036 38.3411 48.4017 38.1005 50.0897 37.8584C52.5064 37.5134 54.8262 36.7804 57.0875 35.8913C59.5058 34.9478 61.8139 33.7484 63.9733 32.3134C64.0418 32.267 64.1103 32.1872 64.1822 32.1839C64.361 32.1832 64.5398 32.1932 64.7187 32.2137C64.6869 32.3796 64.7187 32.6201 64.6134 32.7113C63.6975 33.5755 62.8134 34.4845 61.8139 35.2426C60.5838 36.1799 59.2953 37.0414 57.9582 37.8219C55.9744 38.9674 53.8184 39.7921 51.5738 40.2652C49.6351 40.6882 47.6964 40.9718 46.1036 41Z" fill="#6DD7BF"/>
<path d="M101.613 16.5105H95.9304V30.9414H101.613V16.5105Z" fill="black"/>
<path d="M105.457 21.1963C105.457 18.1176 105.457 14.4452 105.447 11.3683C105.447 11.3687 105.447 11.3679 105.447 11.3683C107.131 11.3882 109.956 11.3687 111.641 11.3687V26.1393C114.438 26.1393 118.202 26.1393 121 26.1393C120.973 27.4663 120.98 29.6145 121 30.9415C116.098 30.9315 110.359 30.9315 105.457 30.9415C105.464 27.8181 105.457 24.3147 105.457 21.1963Z" fill="black"/>
<path fill-rule="evenodd" clip-rule="evenodd" d="M7.03844 11.4016H18.766C19.9526 11.4016 21.0875 11.6172 22.117 12.231C24.644 13.7238 25.2524 17.1557 23.2602 19.3635C22.9727 19.6819 22.5816 19.9084 22.1889 20.1349C22.0117 20.2376 21.8329 20.3403 21.6657 20.4516C21.6123 20.4864 21.5521 20.5146 21.4267 20.5826C21.9031 20.7767 22.3259 20.9144 22.7253 21.1169C24.3298 21.903 25.1705 23.1754 25.3042 24.96C25.4379 26.7448 24.8947 28.2775 23.5593 29.5215C22.6384 30.3776 21.5019 30.6826 20.2986 30.822C17.5744 31.1499 14.8434 31.1122 12.1109 31.0746C10.5599 31.0532 9.00724 31.0318 7.45626 31.0774C7.11365 31.0873 7 30.9895 7 30.6412C7.01003 24.3745 7.01336 18.1084 7.00834 11.8429L7.0234 11.629L7.03844 11.4016ZM15.146 26.8095C15.1894 26.8095 15.2329 26.81 15.2763 26.8107C15.3883 26.8123 15.4986 26.8161 15.6106 26.8198C15.9565 26.8316 16.3042 26.8432 16.6501 26.7962C17.2167 26.7166 17.8201 26.6303 18.3214 26.3666C19.107 25.932 19.3159 25.1574 19.0786 24.1671C19.0719 24.1414 19.0652 24.1154 19.0568 24.0893C18.878 23.5468 18.1192 22.9816 17.4189 22.953C16.5733 22.918 15.7276 22.9068 14.8836 22.8956C14.4473 22.8898 14.0111 22.8841 13.5749 22.875C13.3493 22.87 13.2407 22.9413 13.2407 23.1819C13.249 24.2877 13.249 25.3936 13.2407 26.4993C13.2407 26.571 13.2474 26.6275 13.2657 26.6721C13.3042 26.7815 13.3961 26.8231 13.5632 26.8194C13.7621 26.8131 13.961 26.8105 14.1599 26.8095C14.3187 26.8087 14.4758 26.809 14.6345 26.8093H14.688L14.7666 26.8095C14.8334 26.8097 14.9019 26.8098 14.9688 26.8097L15.146 26.8095ZM13.244 17.4343C13.2423 17.5019 13.2423 17.5694 13.2423 17.6371C13.239 18.003 13.2356 18.3689 13.2557 18.7348C13.2557 18.8477 13.4228 19.0484 13.5031 19.0467C14.6546 19.0368 15.8078 19.0202 16.956 18.9571C17.2735 18.9503 17.5777 18.8354 17.8201 18.6318C17.8886 18.5729 17.9521 18.5076 18.0089 18.437C18.151 18.262 18.2479 18.0541 18.2897 17.8308C18.4568 17.1159 18.4685 16.3463 17.7649 15.8868C17.3437 15.6262 16.8657 15.4713 16.371 15.4356C15.7727 15.3906 15.1694 15.3975 14.5677 15.4045C14.2368 15.4083 13.9075 15.4121 13.5783 15.4074C13.4195 15.4055 13.3309 15.4413 13.2858 15.5216C13.2507 15.5764 13.2373 15.6538 13.2373 15.7574C13.2407 15.8602 13.2423 15.9633 13.244 16.0664V17.242C13.244 17.306 13.244 17.3702 13.244 17.4343Z" fill="black"/>
<path fill-rule="evenodd" clip-rule="evenodd" d="M74.7598 11.8827V21.1551C74.7598 21.9373 74.7598 22.7198 74.7598 23.502C74.7615 25.8513 74.7632 28.2 74.7532 30.5466C74.7532 30.9248 74.8702 31.0443 75.2546 31.0443C76.5849 31.038 77.9153 31.0385 79.2457 31.0388C80.7264 31.0393 82.2089 31.0398 83.6897 31.031C85.0518 31.0351 86.4055 30.8253 87.7008 30.409C89.9671 29.6609 91.4228 28.0471 92.3069 25.8908C92.8701 24.5173 92.947 23.0509 93.0089 21.5961C93.064 20.1912 92.9069 18.7859 92.5392 17.4278C91.9091 15.0508 90.5922 13.1931 88.3008 12.1116C86.8852 11.4431 85.3526 11.3619 83.8284 11.3437C81.8061 11.3177 79.7838 11.3228 77.7615 11.3279C76.9426 11.33 76.1236 11.332 75.3047 11.332C74.7598 11.332 74.7598 11.3337 74.7598 11.8827ZM83.7231 26.4496C83.0997 26.5008 82.4729 26.4879 81.8278 26.4748C81.5303 26.4688 81.2312 26.4629 80.9253 26.4629L80.9186 25.3036C80.9186 24.3053 80.9203 23.3066 80.922 22.3079C80.9253 20.3106 80.927 18.3135 80.9186 16.3232C80.917 16.0641 80.9688 15.9308 81.1459 15.8888C81.2028 15.8741 81.2746 15.8694 81.3632 15.8736C81.6356 15.8862 81.9064 15.8877 82.1771 15.8891C82.9025 15.8932 83.6228 15.8971 84.3381 16.1158C85.4011 16.4476 86.0963 17.0961 86.3955 18.1361C86.9437 20.0945 86.9805 22.1596 86.5008 24.1358C86.2919 25.042 85.8222 25.6716 85.147 26.0462C84.7459 26.2699 84.2696 26.403 83.7314 26.4489C83.7281 26.4489 83.7264 26.4496 83.7231 26.4496Z" fill="black"/>
<path fill-rule="evenodd" clip-rule="evenodd" d="M32.6195 30.2415C34.361 31.0991 36.2295 31.3777 38.1566 31.3164C40.0318 31.3777 41.8351 31.0972 43.5315 30.2316C45.161 29.3994 46.4747 28.0654 47.2752 26.4298C48.029 24.9352 48.2513 23.3064 48.3181 21.6692C48.3967 19.7136 48.1493 17.8043 47.2936 15.998C46.6334 14.5935 45.5872 13.4028 44.2752 12.5627C42.8764 11.6488 41.2986 11.2258 39.6557 11.0815C37.6719 10.9057 35.7098 10.9803 33.8062 11.6438C31.5649 12.4268 29.8669 13.8449 28.8641 15.9682C28.4479 16.8429 28.2223 17.823 28.0017 18.779L28 18.788C27.5855 20.5877 27.6858 22.3991 28.0869 24.1905C28.356 25.4451 28.8841 26.6311 29.6379 27.6738C30.4017 28.7621 31.4262 29.6445 32.6195 30.2415ZM42.1777 21.155C42.141 21.8616 42.0925 22.5716 41.9638 23.2609C41.8685 23.7721 41.7282 24.2723 41.5176 24.7511C41.292 25.2635 40.9777 25.6689 40.5933 25.9753C40.2374 26.2572 39.8229 26.4555 39.3599 26.5762C39.2245 26.6116 39.0841 26.6403 38.9404 26.6625C38.9387 26.6628 38.9354 26.6633 38.9337 26.6636C38.8518 26.6761 38.7716 26.6874 38.6914 26.6973C37.4797 26.8459 36.3165 26.6829 35.3521 25.7779C34.7839 25.2492 34.3928 24.5592 34.2323 23.8023C33.8178 22.0112 33.8429 20.1477 34.3059 18.3683C34.4998 17.6377 34.9176 16.9852 35.5025 16.5017C35.795 16.26 36.1209 16.0666 36.4702 15.9264C36.6658 15.8478 36.868 15.7859 37.0752 15.7418C37.239 15.7067 37.4045 15.6821 37.5733 15.6695C38.9103 15.5866 40.1137 15.8835 41.0312 16.9335C41.5142 17.5069 41.8335 18.1992 41.9521 18.9373C42.0507 19.4827 42.0925 20.0433 42.1343 20.6035C42.1477 20.7876 42.1627 20.9716 42.1777 21.155Z" fill="black"/>
<path fill-rule="evenodd" clip-rule="evenodd" d="M56.3588 30.5749C57.893 31.1461 59.5309 31.3963 61.1671 31.3097C62.7148 31.3981 64.2624 31.1531 65.7047 30.5915C67.6318 29.8623 69.2162 28.4464 70.1471 26.6205C71.0446 24.9169 71.2702 23.0592 71.2953 21.1765C71.3337 19.7984 71.1398 18.4236 70.7203 17.1093C70.1137 15.293 69.0674 13.7952 67.4579 12.707C66.0323 11.7626 64.3811 11.2045 62.6713 11.0881C60.4 10.8941 58.1554 10.9919 56.0162 11.959C54.4435 12.6416 53.1215 13.7897 52.2306 15.2465C51.4886 16.4902 51.0273 17.8782 50.8769 19.3154C50.6362 21.3241 50.7148 23.298 51.3448 25.2304C51.6707 26.2096 52.1671 27.1245 52.8106 27.9342C53.7198 29.1286 54.9482 30.0441 56.3588 30.5749ZM65.0981 20.2878C65.1298 20.5339 65.1616 20.7801 65.1967 21.0256L65.1933 21.0173C65.1933 21.0173 65.19 21.0574 65.1883 21.0775C65.1047 22.2172 65.0195 23.3203 64.6401 24.3978C64.4797 24.8685 64.2423 25.2671 63.9465 25.5945C63.3181 26.2944 62.424 26.6711 61.4228 26.7299C60.1376 26.8079 58.9694 26.5392 58.0802 25.5307C57.4585 24.8257 57.1994 23.9647 57.0574 23.0525C56.8033 21.4137 56.8468 19.7931 57.3482 18.2024C57.4084 18.0141 57.4836 17.832 57.5721 17.6574C57.8145 17.179 58.1604 16.7576 58.59 16.4254C59.1716 15.974 59.8802 15.7087 60.6173 15.6646C61.8306 15.5916 62.9337 15.8769 63.8312 16.7295C64.3627 17.2395 64.7203 17.902 64.8524 18.6238C64.9075 18.9169 64.9526 19.2118 64.9928 19.5076C65.0312 19.7671 65.0646 20.0275 65.0981 20.2878Z" fill="black"/>
</svg>
