<svg width="245" height="52" viewBox="0 0 245 52" fill="none" xmlns="http://www.w3.org/2000/svg">
<rect width="245" height="52" rx="3" fill="#303234"/>
<path d="M220.601 18.4294H216.088V21.5785H220.601V18.4294Z" fill="#6DD7BD"/>
<path d="M176.512 42C174.797 41.987 173.089 41.7918 171.416 41.4174C169.551 41.0147 167.747 40.3693 166.053 39.4979C165.92 39.4323 165.808 39.3522 165.682 39.2866C165.508 39.1947 165.36 39.0531 165.489 38.8773C165.545 38.8206 165.614 38.7777 165.689 38.7517C165.765 38.7258 165.845 38.7175 165.924 38.7276C166.538 38.8588 167.136 39.0571 167.754 39.1686C169 39.3917 170.248 39.6344 171.506 39.7577C172.878 39.9053 174.258 39.9654 175.637 39.9374C176.989 39.8967 178.338 39.7064 179.678 39.5149C181.598 39.2419 183.44 38.6621 185.236 37.9588C187.157 37.2125 188.99 36.2637 190.706 35.1286C190.76 35.0919 190.814 35.0288 190.871 35.0261C191.014 35.0256 191.156 35.0335 191.298 35.0498C191.272 35.181 191.298 35.3712 191.214 35.4434C190.487 36.127 189.784 36.846 188.99 37.4457C188.013 38.1871 186.99 38.8687 185.928 39.486C184.352 40.3921 182.64 41.0445 180.857 41.4187C179.317 41.7533 177.777 41.9777 176.512 42Z" fill="#6DD7BD"/>
<path d="M220.601 22.6282H216.088V34.0435H220.601V22.6282Z" fill="#F5F5F5"/>
<path d="M223.654 26.3347C223.654 23.8993 223.654 20.9944 223.646 18.5604C223.646 18.5607 223.646 18.5601 223.646 18.5604C224.985 18.5761 227.228 18.5607 228.566 18.5607V30.2447C230.788 30.2447 233.778 30.2447 236 30.2447C235.979 31.2944 235.984 32.9937 236 34.0434C232.106 34.0355 227.548 34.0355 223.654 34.0434C223.66 31.5727 223.654 28.8014 223.654 26.3347Z" fill="#F5F5F5"/>
<path fill-rule="evenodd" clip-rule="evenodd" d="M145.484 18.5869H154.799C155.741 18.5869 156.643 18.7575 157.461 19.243C159.468 20.4239 159.951 23.1386 158.369 24.885C158.14 25.1369 157.83 25.316 157.518 25.4953C157.377 25.5765 157.235 25.6577 157.102 25.7457C157.06 25.7733 157.012 25.7956 156.912 25.8494C157.291 26.0029 157.626 26.1118 157.944 26.272C159.218 26.8938 159.886 27.9004 159.992 29.3121C160.098 30.7239 159.667 31.9363 158.606 32.9203C157.875 33.5975 156.972 33.8388 156.016 33.949C153.852 34.2084 151.683 34.1787 149.513 34.1489C148.281 34.1319 147.048 34.115 145.816 34.1511C145.544 34.159 145.454 34.0816 145.454 33.806C145.462 28.8489 145.464 23.8922 145.46 18.936L145.472 18.7668L145.484 18.5869ZM151.924 30.775C151.958 30.775 151.993 30.7754 152.027 30.776C152.116 30.7773 152.204 30.7803 152.293 30.7832C152.567 30.7925 152.844 30.8017 153.118 30.7646C153.568 30.7016 154.048 30.6333 154.446 30.4247C155.07 30.0809 155.236 29.4682 155.047 28.6849C155.042 28.6645 155.037 28.6439 155.03 28.6233C154.888 28.1941 154.285 27.7471 153.729 27.7244C153.057 27.6967 152.386 27.6879 151.715 27.679C151.369 27.6744 151.022 27.6699 150.676 27.6627C150.497 27.6588 150.41 27.7152 150.41 27.9055C150.417 28.7803 150.417 29.655 150.41 30.5297C150.41 30.5864 150.416 30.6311 150.43 30.6664C150.461 30.7529 150.534 30.7858 150.667 30.7829C150.825 30.7779 150.982 30.7758 151.14 30.775C151.267 30.7744 151.391 30.7747 151.517 30.7749H151.56L151.622 30.775C151.675 30.7752 151.73 30.7753 151.783 30.7752L151.924 30.775ZM150.413 23.3589C150.412 23.4124 150.412 23.4659 150.412 23.5194C150.409 23.8088 150.406 24.0983 150.422 24.3877C150.422 24.477 150.555 24.6357 150.619 24.6344C151.533 24.6266 152.449 24.6134 153.361 24.5635C153.614 24.5582 153.855 24.4673 154.048 24.3062C154.102 24.2597 154.152 24.208 154.198 24.1521C154.31 24.0137 154.387 23.8492 154.421 23.6726C154.553 23.1071 154.563 22.4983 154.004 22.1349C153.669 21.9287 153.29 21.8062 152.897 21.7779C152.421 21.7423 151.942 21.7478 151.464 21.7533C151.202 21.7563 150.94 21.7594 150.679 21.7556C150.552 21.7541 150.482 21.7824 150.446 21.846C150.418 21.8893 150.408 21.9505 150.408 22.0325C150.41 22.1138 150.412 22.1953 150.413 22.277V23.2068C150.413 23.2575 150.413 23.3083 150.413 23.3589Z" fill="#F5F5F5"/>
<path fill-rule="evenodd" clip-rule="evenodd" d="M199.273 18.9673V26.3021C199.273 26.9209 199.273 27.5398 199.273 28.1586C199.274 30.0169 199.276 31.8749 199.268 33.7311C199.268 34.0302 199.361 34.1247 199.666 34.1247C200.722 34.1197 201.779 34.1201 202.836 34.1204C204.012 34.1208 205.189 34.1212 206.366 34.1142C207.447 34.1175 208.523 33.9515 209.551 33.6222C211.351 33.0304 212.508 31.7539 213.21 30.0481C213.657 28.9617 213.718 27.8017 213.767 26.651C213.811 25.5396 213.686 24.428 213.394 23.3537C212.894 21.4734 211.848 20.0039 210.028 19.1484C208.904 18.6196 207.686 18.5553 206.476 18.5409C204.869 18.5203 203.263 18.5244 201.657 18.5284C201.007 18.5301 200.356 18.5317 199.706 18.5317C199.273 18.5317 199.273 18.533 199.273 18.9673ZM206.392 30.4902C205.897 30.5307 205.399 30.5205 204.887 30.5101C204.65 30.5054 204.413 30.5007 204.17 30.5007L204.165 29.5837C204.165 28.794 204.166 28.004 204.167 27.214C204.17 25.6341 204.171 24.0543 204.165 22.4799C204.163 22.2749 204.204 22.1695 204.345 22.1363C204.39 22.1246 204.447 22.1209 204.518 22.1242C204.734 22.1342 204.949 22.1354 205.164 22.1365C205.74 22.1397 206.312 22.1429 206.881 22.3158C207.725 22.5783 208.277 23.0913 208.515 23.9139C208.95 25.4631 208.979 27.0967 208.598 28.6599C208.432 29.3767 208.059 29.8748 207.523 30.1711C207.204 30.3481 206.826 30.4533 206.399 30.4897C206.396 30.4897 206.395 30.4902 206.392 30.4902Z" fill="#F5F5F5"/>
<path fill-rule="evenodd" clip-rule="evenodd" d="M165.802 33.4897C167.186 34.1681 168.67 34.3885 170.2 34.3399C171.69 34.3885 173.122 34.1666 174.469 33.4818C175.764 32.8235 176.807 31.7684 177.443 30.4745C178.042 29.2923 178.218 28.0038 178.271 26.7087C178.334 25.1618 178.137 23.6515 177.457 22.2226C176.933 21.1117 176.102 20.1697 175.06 19.5052C173.949 18.7823 172.696 18.4477 171.391 18.3335C169.815 18.1945 168.257 18.2535 166.745 18.7783C164.965 19.3977 163.616 20.5195 162.82 22.199C162.489 22.8909 162.31 23.6663 162.135 24.4225L162.133 24.4296C161.804 25.8532 161.884 27.2861 162.202 28.7031C162.416 29.6956 162.835 30.6338 163.434 31.4586C164.041 32.3194 164.855 33.0175 165.802 33.4897ZM173.394 26.302C173.365 26.8609 173.326 27.4225 173.224 27.9678C173.149 28.3722 173.037 28.7678 172.87 29.1466C172.691 29.5519 172.441 29.8726 172.136 30.115C171.853 30.338 171.524 30.4948 171.156 30.5903C171.048 30.6183 170.937 30.641 170.823 30.6586C170.821 30.6588 170.819 30.6592 170.817 30.6595C170.752 30.6693 170.689 30.6783 170.625 30.6861C169.663 30.8037 168.739 30.6747 167.973 29.9588C167.521 29.5407 167.211 28.9948 167.083 28.3961C166.754 26.9793 166.774 25.5051 167.142 24.0976C167.296 23.5197 167.628 23.0035 168.092 22.6211C168.324 22.4299 168.583 22.2769 168.861 22.166C169.016 22.1038 169.177 22.0549 169.341 22.0199C169.471 21.9922 169.603 21.9727 169.737 21.9628C170.799 21.8972 171.755 22.1321 172.483 22.9626C172.867 23.4162 173.121 23.9638 173.215 24.5477C173.293 24.9792 173.326 25.4226 173.36 25.8657C173.37 26.0114 173.382 26.1569 173.394 26.302Z" fill="#F5F5F5"/>
<path fill-rule="evenodd" clip-rule="evenodd" d="M184.658 33.7534C185.876 34.2053 187.177 34.4032 188.477 34.3347C189.706 34.4046 190.935 34.2109 192.081 33.7666C193.611 33.1898 194.87 32.0698 195.609 30.6254C196.322 29.2779 196.501 27.8083 196.521 26.3191C196.552 25.229 196.398 24.1414 196.065 23.1017C195.583 21.665 194.752 20.4802 193.473 19.6194C192.341 18.8723 191.03 18.4309 189.672 18.3388C187.868 18.1853 186.085 18.2627 184.386 19.0277C183.136 19.5676 182.086 20.4759 181.379 21.6282C180.79 22.612 180.423 23.7099 180.304 24.8468C180.113 26.4358 180.175 27.9972 180.675 29.5258C180.934 30.3004 181.328 31.0241 181.84 31.6646C182.562 32.6094 183.537 33.3336 184.658 33.7534ZM191.599 25.616C191.624 25.8107 191.649 26.0055 191.677 26.1997L191.675 26.1931C191.675 26.1931 191.672 26.2248 191.671 26.2407C191.604 27.1423 191.537 28.0148 191.235 28.8672C191.108 29.2395 190.919 29.5548 190.684 29.8138C190.185 30.3674 189.475 30.6654 188.68 30.712C187.659 30.7737 186.731 30.5611 186.025 29.7633C185.531 29.2057 185.325 28.5246 185.213 27.803C185.011 26.5067 185.045 25.2248 185.444 23.9664C185.491 23.8175 185.551 23.6734 185.621 23.5354C185.814 23.1569 186.089 22.8236 186.43 22.5608C186.892 22.2037 187.455 21.9938 188.04 21.9589C189.004 21.9012 189.88 22.1269 190.593 22.8013C191.015 23.2048 191.299 23.7288 191.404 24.2997C191.448 24.5316 191.484 24.7649 191.515 24.9989C191.546 25.2042 191.573 25.4102 191.599 25.616Z" fill="#F5F5F5"/>
<path d="M135.909 12H134.051V40.7351H135.909V12Z" fill="#F5F5F5"/>
<path d="M13.9465 27.7992H10.5564V26.0398H13.9465C14.5368 26.0398 15.0139 25.9455 15.3777 25.7569C15.7414 25.5682 16.0068 25.309 16.1738 24.9788C16.3467 24.6429 16.4332 24.2597 16.4332 23.8295C16.4332 23.4228 16.3467 23.0426 16.1738 22.6889C16.0068 22.3294 15.7414 22.0406 15.3777 21.8225C15.0139 21.6044 14.5368 21.4954 13.9465 21.4954H11.2451V32.6001H9V19.7271H13.9465C14.9543 19.7271 15.81 19.9039 16.5137 20.2576C17.2233 20.6053 17.763 21.0887 18.1327 21.7075C18.5024 22.3205 18.6872 23.022 18.6872 23.8118C18.6872 24.6429 18.5024 25.3561 18.1327 25.9514C17.763 26.5467 17.2233 27.0036 16.5137 27.3217C15.81 27.6401 14.9543 27.7992 13.9465 27.7992ZM25.8341 30.6815V26.1193C25.8341 25.7775 25.7715 25.4828 25.6463 25.2352C25.5211 24.9877 25.3302 24.7961 25.0739 24.6605C24.8234 24.525 24.5073 24.4572 24.1257 24.4572C23.7739 24.4572 23.4698 24.5161 23.2133 24.634C22.9569 24.7519 22.7571 24.9111 22.614 25.1115C22.4709 25.3119 22.3993 25.5388 22.3993 25.7922H20.2526C20.2526 25.415 20.345 25.0496 20.5299 24.6959C20.7147 24.3423 20.9831 24.0269 21.335 23.7499C21.6868 23.4729 22.1072 23.2548 22.5962 23.0956C23.0851 22.9365 23.6337 22.8569 24.242 22.8569C24.9694 22.8569 25.6135 22.9777 26.1741 23.2194C26.7405 23.4611 27.1848 23.8265 27.5069 24.3157C27.8348 24.7991 27.9988 25.4062 27.9988 26.137V30.3897C27.9988 30.826 28.0286 31.2179 28.0883 31.5656C28.1539 31.9076 28.2463 32.2051 28.3655 32.4586V32.6001H26.1562C26.0548 32.3702 25.9743 32.0784 25.9147 31.7248C25.861 31.3653 25.8341 31.0174 25.8341 30.6815ZM26.1473 26.7825L26.1651 28.0998H24.6177C24.2181 28.0998 23.8663 28.1381 23.5622 28.2148C23.2581 28.2855 23.0047 28.3916 22.8018 28.5331C22.5991 28.6745 22.447 28.8455 22.3457 29.0458C22.2443 29.2462 22.1936 29.4732 22.1936 29.7267C22.1936 29.9801 22.2533 30.213 22.3725 30.4251C22.4917 30.6314 22.6647 30.7934 22.8913 30.9114C23.1239 31.0292 23.4041 31.0883 23.7321 31.0883C24.1734 31.0883 24.5581 30.9998 24.8861 30.823C25.2199 30.6402 25.4824 30.4192 25.6731 30.1598C25.864 29.8946 25.9653 29.6442 25.9773 29.4084L26.675 30.3544C26.6034 30.5961 26.4812 30.8554 26.3082 31.1324C26.1354 31.4095 25.9088 31.6747 25.6284 31.9282C25.3541 32.1757 25.0232 32.379 24.6356 32.5381C24.2539 32.6973 23.8127 32.777 23.3117 32.777C22.6796 32.777 22.1161 32.6531 21.6212 32.4056C21.1262 32.1521 20.7386 31.8132 20.4583 31.3889C20.178 30.9585 20.0379 30.4722 20.0379 29.9299C20.0379 29.4231 20.1333 28.9751 20.3242 28.5861C20.5209 28.1911 20.8072 27.8611 21.1828 27.5958C21.5645 27.3307 22.0296 27.1302 22.5783 26.9946C23.1269 26.8532 23.753 26.7825 24.4566 26.7825H26.1473ZM32.9184 31.5568L35.5483 23.0337H37.8561L33.9739 34.0589C33.8846 34.2947 33.7683 34.5511 33.6252 34.828C33.4819 35.1052 33.2941 35.3674 33.0615 35.615C32.8349 35.8684 32.5518 36.0718 32.2118 36.225C31.872 36.3842 31.4605 36.4637 30.9774 36.4637C30.7867 36.4637 30.6017 36.4461 30.4228 36.4107C30.25 36.3812 30.0859 36.3488 29.9308 36.3135L29.9219 34.6866C29.9815 34.6925 30.0531 34.6984 30.1366 34.7043C30.2261 34.7102 30.2976 34.7131 30.3512 34.7131C30.7091 34.7131 31.0073 34.669 31.2458 34.5806C31.4844 34.498 31.6782 34.3625 31.8273 34.1738C31.9823 33.9853 32.1135 33.7318 32.2207 33.4135L32.9184 31.5568ZM31.4337 23.0337L33.7324 30.1953L34.1171 32.4409L32.6233 32.8212L29.1079 23.0337H31.4337ZM43.6612 19.0198H45.8169V30.5578L45.6112 32.6001H43.6612V19.0198ZM52.132 27.7285V27.9142C52.132 28.6215 52.0514 29.2728 51.8904 29.8681C51.7354 30.4575 51.4968 30.9703 51.1749 31.4065C50.8588 31.8427 50.4652 32.1816 49.9941 32.4232C49.529 32.659 48.9894 32.777 48.3752 32.777C47.7729 32.777 47.2481 32.6649 46.8008 32.4409C46.3536 32.2169 45.9779 31.8986 45.6738 31.4861C45.3756 31.0734 45.1341 30.5813 44.9492 30.0096C44.7645 29.4378 44.6332 28.8072 44.5556 28.1175V27.5251C44.6332 26.8296 44.7645 26.199 44.9492 25.6331C45.1341 25.0614 45.3756 24.5692 45.6738 24.1566C45.9779 23.7381 46.3506 23.4169 46.7919 23.1929C47.2391 22.9689 47.7609 22.8569 48.3572 22.8569C48.9774 22.8569 49.523 22.9748 49.9941 23.2106C50.4712 23.4463 50.8677 23.7823 51.1838 24.2185C51.4999 24.6488 51.7354 25.1616 51.8904 25.7569C52.0514 26.3522 52.132 27.0095 52.132 27.7285ZM49.9762 27.9142V27.7285C49.9762 27.2983 49.9405 26.8945 49.8689 26.5173C49.7974 26.1341 49.6781 25.7981 49.5111 25.5093C49.3502 25.2205 49.1294 24.9936 48.8492 24.8285C48.5749 24.6576 48.2321 24.5721 47.8205 24.5721C47.4389 24.5721 47.1109 24.637 46.8366 24.7666C46.5624 24.8963 46.3327 25.0732 46.1478 25.2972C45.963 25.5211 45.8169 25.7804 45.7096 26.0751C45.6082 26.3699 45.5396 26.6881 45.5038 27.0301V28.6303C45.5575 29.0724 45.6708 29.4791 45.8437 29.8504C46.0226 30.2159 46.2731 30.5106 46.5952 30.7345C46.9171 30.9526 47.3315 31.0616 47.8385 31.0616C48.238 31.0616 48.5749 30.9821 48.8492 30.823C49.1234 30.6638 49.3411 30.4428 49.5022 30.1598C49.6692 29.871 49.7884 29.5351 49.8599 29.152C49.9374 28.7689 49.9762 28.3562 49.9762 27.9142ZM56.658 31.5568L59.2878 23.0337H61.5956L57.7135 34.0589C57.6241 34.2947 57.5078 34.5511 57.3647 34.828C57.2215 35.1052 57.0337 35.3674 56.8011 35.615C56.5745 35.8684 56.2914 36.0718 55.9514 36.225C55.6114 36.3842 55.2 36.4637 54.717 36.4637C54.5262 36.4637 54.3413 36.4461 54.1624 36.4107C53.9895 36.3812 53.8255 36.3488 53.6704 36.3135L53.6615 34.6866C53.7211 34.6925 53.7927 34.6984 53.8762 34.7043C53.9656 34.7102 54.0372 34.7131 54.0908 34.7131C54.4487 34.7131 54.7468 34.669 54.9854 34.5806C55.2239 34.498 55.4178 34.3625 55.5668 34.1738C55.7219 33.9853 55.853 33.7318 55.9603 33.4135L56.658 31.5568ZM55.1732 23.0337L57.472 30.1953L57.8567 32.4409L56.3629 32.8212L52.8475 23.0337H55.1732ZM72.4904 26.7825H69.1719L69.154 25.1645H72.0521C72.5411 25.1645 72.9555 25.0938 73.2954 24.9523C73.6413 24.805 73.9036 24.5957 74.0826 24.3246C74.2615 24.0476 74.3508 23.7145 74.3508 23.3255C74.3508 22.8952 74.2675 22.5445 74.1005 22.2734C73.9335 22.0023 73.677 21.8048 73.3312 21.681C72.9913 21.5572 72.556 21.4954 72.0253 21.4954H69.8517V32.6001H67.6065V19.7271H72.0253C72.7409 19.7271 73.3789 19.7949 73.9395 19.9304C74.5059 20.066 74.986 20.2782 75.3796 20.567C75.7791 20.8499 76.0803 21.2095 76.283 21.6457C76.4916 22.0818 76.5961 22.6005 76.5961 23.2017C76.5961 23.7322 76.4679 24.2185 76.2114 24.6605C75.9549 25.0967 75.5764 25.4533 75.0754 25.7304C74.5745 26.0074 73.9514 26.1725 73.2059 26.2255L72.4904 26.7825ZM72.392 32.6001H68.4653L69.476 30.8407H72.392C72.8989 30.8407 73.3222 30.7581 73.6622 30.5931C74.0021 30.4221 74.2555 30.1893 74.4225 29.8946C74.5954 29.594 74.6819 29.2433 74.6819 28.8425C74.6819 28.424 74.6073 28.0615 74.4582 27.755C74.3092 27.4426 74.0737 27.2039 73.7516 27.0388C73.4296 26.8679 73.0092 26.7825 72.4904 26.7825H69.968L69.9859 25.1645H73.2686L73.7784 25.7745C74.4941 25.7981 75.0813 25.9544 75.5405 26.2432C76.0057 26.532 76.3516 26.9062 76.5782 27.366C76.8048 27.8257 76.918 28.3209 76.918 28.8514C76.918 29.6707 76.7362 30.3573 76.3724 30.9114C76.0147 31.4655 75.4988 31.8868 74.825 32.1757C74.1512 32.4586 73.3401 32.6001 72.392 32.6001ZM84.4228 30.6815V26.1193C84.4228 25.7775 84.3602 25.4828 84.2349 25.2352C84.1097 24.9877 83.9189 24.7961 83.6625 24.6605C83.412 24.525 83.0959 24.4572 82.7143 24.4572C82.3625 24.4572 82.0584 24.5161 81.8019 24.634C81.5456 24.7519 81.3458 24.9111 81.2027 25.1115C81.0596 25.3119 80.988 25.5388 80.988 25.7922H78.8413C78.8413 25.415 78.9336 25.0496 79.1186 24.6959C79.3033 24.3423 79.5718 24.0269 79.9235 23.7499C80.2753 23.4729 80.6957 23.2548 81.1848 23.0956C81.6738 22.9365 82.2223 22.8569 82.8306 22.8569C83.5581 22.8569 84.2021 22.9777 84.7627 23.2194C85.3292 23.4611 85.7734 23.8265 86.0954 24.3157C86.4235 24.7991 86.5874 25.4062 86.5874 26.137V30.3897C86.5874 30.826 86.6173 31.2179 86.6769 31.5656C86.7425 31.9076 86.8348 32.2051 86.9542 32.4586V32.6001H84.7448C84.6435 32.3702 84.5629 32.0784 84.5033 31.7248C84.4497 31.3653 84.4228 31.0174 84.4228 30.6815ZM84.7359 26.7825L84.7538 28.0998H83.2062C82.8068 28.0998 82.4549 28.1381 82.1508 28.2148C81.8466 28.2855 81.5932 28.3916 81.3905 28.5331C81.1877 28.6745 81.0357 28.8455 80.9343 29.0458C80.833 29.2462 80.7823 29.4732 80.7823 29.7267C80.7823 29.9801 80.8419 30.213 80.9611 30.4251C81.0804 30.6314 81.2534 30.7934 81.48 30.9114C81.7126 31.0292 81.9928 31.0883 82.3208 31.0883C82.7621 31.0883 83.1466 30.9998 83.4746 30.823C83.8086 30.6402 84.0709 30.4192 84.2618 30.1598C84.4526 29.8946 84.554 29.6442 84.5659 29.4084L85.2637 30.3544C85.192 30.5961 85.0698 30.8554 84.8969 31.1324C84.7239 31.4095 84.4973 31.6747 84.2171 31.9282C83.9427 32.1757 83.6118 32.379 83.2241 32.5381C82.8425 32.6973 82.4012 32.777 81.9004 32.777C81.2683 32.777 80.7047 32.6531 80.2097 32.4056C79.7149 32.1521 79.3272 31.8132 79.0469 31.3889C78.7666 30.9585 78.6265 30.4722 78.6265 29.9299C78.6265 29.4231 78.7219 28.9751 78.9128 28.5861C79.1095 28.1911 79.3957 27.8611 79.7714 27.5958C80.153 27.3307 80.6182 27.1302 81.1668 26.9946C81.7155 26.8532 82.3416 26.7825 83.0453 26.7825H84.7359ZM90.9793 25.0761V32.6001H88.8236V23.0337H90.8541L90.9793 25.0761ZM90.5947 27.4633L89.897 27.4544C89.903 26.7766 89.9983 26.1548 90.1832 25.5888C90.3741 25.023 90.6364 24.5368 90.9704 24.1301C91.3103 23.7234 91.7158 23.411 92.1869 23.1929C92.658 22.9689 93.1828 22.8569 93.7612 22.8569C94.2263 22.8569 94.6467 22.9218 95.0224 23.0514C95.404 23.1752 95.729 23.3786 95.9974 23.6615C96.2717 23.9444 96.4805 24.3128 96.6236 24.7666C96.7667 25.2146 96.8382 25.7657 96.8382 26.4199V32.6001H94.6735V26.4111C94.6735 25.9514 94.605 25.5888 94.4678 25.3237C94.3366 25.0525 94.1428 24.861 93.8865 24.749C93.636 24.6311 93.3228 24.5721 92.9471 24.5721C92.5775 24.5721 92.2465 24.6488 91.9543 24.802C91.6622 24.9553 91.4146 25.1645 91.2119 25.4298C91.0152 25.695 90.863 26.0015 90.7558 26.3492C90.6484 26.697 90.5947 27.0684 90.5947 27.4633ZM101.212 19.0198V32.6001H99.0475V19.0198H101.212ZM107.223 23.0337L103.01 27.649L100.702 29.9831L100.139 28.1795L101.883 26.0486L104.62 23.0337H107.223ZM105.085 32.6001L101.946 28.1087L103.305 26.6145L107.581 32.6001H105.085Z" fill="#F5F5F5"/>
<path fill-rule="evenodd" clip-rule="evenodd" d="M116.528 23.3496C116.528 21.4293 118.103 19.8726 120.046 19.8726C121.989 19.8726 123.564 21.4293 123.564 23.3496V24.3337C124.004 24.3337 124.36 24.6862 124.36 25.121V30.2382C124.36 30.6729 124.004 31.0255 123.564 31.0255H116.528C116.088 31.0255 115.732 30.6729 115.732 30.2382V25.121C115.732 24.6862 116.088 24.3337 116.528 24.3337V23.3496ZM117.856 24.3337H122.236V23.3496C122.236 22.1539 121.256 21.1847 120.046 21.1847C118.836 21.1847 117.856 22.1539 117.856 23.3496V24.3337ZM120.71 27.757C120.913 27.5769 121.042 27.315 121.042 27.0235C121.042 26.4801 120.596 26.0395 120.046 26.0395C119.496 26.0395 119.05 26.4801 119.05 27.0235C119.05 27.315 119.179 27.5769 119.382 27.757V29.3853C119.382 29.494 119.471 29.5821 119.581 29.5821H120.511C120.62 29.5821 120.71 29.494 120.71 29.3853V27.757Z" fill="#F5F5F5"/>
</svg>
