<svg width="245" height="52" viewBox="0 0 245 52" fill="none" xmlns="http://www.w3.org/2000/svg">
<rect width="245" height="52" rx="3" fill="#444444"/>
<path d="M221.601 18.4294H217.088V21.5785H221.601V18.4294Z" fill="black"/>
<path d="M177.512 42C175.797 41.987 174.089 41.7918 172.416 41.4174C170.551 41.0147 168.747 40.3693 167.053 39.4979C166.92 39.4323 166.808 39.3522 166.682 39.2866C166.508 39.1947 166.36 39.0531 166.489 38.8773C166.545 38.8206 166.614 38.7777 166.689 38.7517C166.765 38.7258 166.845 38.7175 166.924 38.7276C167.538 38.8588 168.136 39.0571 168.754 39.1686C170 39.3917 171.248 39.6344 172.506 39.7577C173.878 39.9053 175.258 39.9654 176.637 39.9374C177.989 39.8967 179.338 39.7064 180.678 39.5149C182.598 39.2419 184.44 38.6621 186.236 37.9588C188.157 37.2125 189.99 36.2637 191.706 35.1286C191.76 35.0919 191.814 35.0288 191.871 35.0261C192.014 35.0256 192.156 35.0335 192.298 35.0498C192.272 35.181 192.298 35.3712 192.214 35.4434C191.487 36.127 190.784 36.846 189.99 37.4457C189.013 38.1871 187.99 38.8687 186.928 39.486C185.352 40.3921 183.64 41.0445 181.857 41.4187C180.317 41.7533 178.777 41.9777 177.512 42Z" fill="black"/>
<path d="M221.601 22.6282H217.088V34.0435H221.601V22.6282Z" fill="black"/>
<path d="M224.654 26.3347C224.654 23.8993 224.654 20.9944 224.646 18.5604C224.646 18.5607 224.646 18.5601 224.646 18.5604C225.985 18.5761 228.228 18.5607 229.566 18.5607V30.2447C231.788 30.2447 234.778 30.2447 237 30.2447C236.979 31.2944 236.984 32.9937 237 34.0434C233.106 34.0355 228.548 34.0355 224.654 34.0434C224.66 31.5727 224.654 28.8014 224.654 26.3347Z" fill="black"/>
<path fill-rule="evenodd" clip-rule="evenodd" d="M146.484 18.5869H155.799C156.741 18.5869 157.643 18.7575 158.461 19.243C160.468 20.4239 160.951 23.1386 159.369 24.885C159.14 25.1369 158.83 25.316 158.518 25.4953C158.377 25.5765 158.235 25.6577 158.102 25.7457C158.06 25.7733 158.012 25.7956 157.912 25.8494C158.291 26.0029 158.626 26.1118 158.944 26.272C160.218 26.8938 160.886 27.9004 160.992 29.3121C161.098 30.7239 160.667 31.9363 159.606 32.9203C158.875 33.5975 157.972 33.8388 157.016 33.949C154.852 34.2084 152.683 34.1787 150.513 34.1489C149.281 34.1319 148.048 34.115 146.816 34.1511C146.544 34.159 146.454 34.0816 146.454 33.806C146.462 28.8489 146.464 23.8922 146.46 18.936L146.472 18.7668L146.484 18.5869ZM152.924 30.775C152.958 30.775 152.993 30.7754 153.027 30.776C153.116 30.7773 153.204 30.7803 153.293 30.7832C153.567 30.7925 153.844 30.8017 154.118 30.7646C154.568 30.7016 155.048 30.6333 155.446 30.4247C156.07 30.0809 156.236 29.4682 156.047 28.6849C156.042 28.6645 156.037 28.6439 156.03 28.6233C155.888 28.1941 155.285 27.7471 154.729 27.7244C154.057 27.6967 153.386 27.6879 152.715 27.679C152.369 27.6744 152.022 27.6699 151.676 27.6627C151.497 27.6588 151.41 27.7152 151.41 27.9055C151.417 28.7803 151.417 29.655 151.41 30.5297C151.41 30.5864 151.416 30.6311 151.43 30.6664C151.461 30.7529 151.534 30.7858 151.667 30.7829C151.825 30.7779 151.982 30.7758 152.14 30.775C152.267 30.7744 152.391 30.7747 152.517 30.7749H152.56L152.622 30.775C152.675 30.7752 152.73 30.7753 152.783 30.7752L152.924 30.775ZM151.413 23.3589C151.412 23.4124 151.412 23.4659 151.412 23.5194C151.409 23.8088 151.406 24.0983 151.422 24.3877C151.422 24.477 151.555 24.6357 151.619 24.6344C152.533 24.6266 153.449 24.6134 154.361 24.5635C154.614 24.5582 154.855 24.4673 155.048 24.3062C155.102 24.2597 155.152 24.208 155.198 24.1521C155.31 24.0137 155.387 23.8492 155.421 23.6726C155.553 23.1071 155.563 22.4983 155.004 22.1349C154.669 21.9287 154.29 21.8062 153.897 21.7779C153.421 21.7423 152.942 21.7478 152.464 21.7533C152.202 21.7563 151.94 21.7594 151.679 21.7556C151.552 21.7541 151.482 21.7824 151.446 21.846C151.418 21.8893 151.408 21.9505 151.408 22.0325C151.41 22.1138 151.412 22.1953 151.413 22.277V23.2068C151.413 23.2575 151.413 23.3083 151.413 23.3589Z" fill="black"/>
<path fill-rule="evenodd" clip-rule="evenodd" d="M200.273 18.9673V26.3021C200.273 26.9209 200.273 27.5398 200.273 28.1586C200.274 30.0169 200.276 31.8749 200.268 33.7311C200.268 34.0302 200.361 34.1247 200.666 34.1247C201.722 34.1197 202.779 34.1201 203.836 34.1204C205.012 34.1208 206.189 34.1212 207.366 34.1142C208.447 34.1175 209.523 33.9515 210.551 33.6222C212.351 33.0304 213.508 31.7539 214.21 30.0481C214.657 28.9617 214.718 27.8017 214.767 26.651C214.811 25.5396 214.686 24.428 214.394 23.3537C213.894 21.4734 212.848 20.0039 211.028 19.1484C209.904 18.6196 208.686 18.5553 207.476 18.5409C205.869 18.5203 204.263 18.5244 202.657 18.5284C202.007 18.5301 201.356 18.5317 200.706 18.5317C200.273 18.5317 200.273 18.533 200.273 18.9673ZM207.392 30.4902C206.897 30.5307 206.399 30.5205 205.887 30.5101C205.65 30.5054 205.413 30.5007 205.17 30.5007L205.165 29.5837C205.165 28.794 205.166 28.004 205.167 27.214C205.17 25.6341 205.171 24.0543 205.165 22.4799C205.163 22.2749 205.204 22.1695 205.345 22.1363C205.39 22.1246 205.447 22.1209 205.518 22.1242C205.734 22.1342 205.949 22.1354 206.164 22.1365C206.74 22.1397 207.312 22.1429 207.881 22.3158C208.725 22.5783 209.277 23.0913 209.515 23.9139C209.95 25.4631 209.979 27.0967 209.598 28.6599C209.432 29.3767 209.059 29.8748 208.523 30.1711C208.204 30.3481 207.826 30.4533 207.399 30.4897C207.396 30.4897 207.395 30.4902 207.392 30.4902Z" fill="black"/>
<path fill-rule="evenodd" clip-rule="evenodd" d="M166.802 33.4897C168.186 34.1681 169.67 34.3885 171.2 34.3399C172.69 34.3885 174.122 34.1666 175.469 33.4818C176.764 32.8235 177.807 31.7684 178.443 30.4745C179.042 29.2923 179.218 28.0038 179.271 26.7087C179.334 25.1618 179.137 23.6515 178.457 22.2226C177.933 21.1117 177.102 20.1697 176.06 19.5052C174.949 18.7823 173.696 18.4477 172.391 18.3335C170.815 18.1945 169.257 18.2535 167.745 18.7783C165.965 19.3977 164.616 20.5195 163.82 22.199C163.489 22.8909 163.31 23.6663 163.135 24.4225L163.133 24.4296C162.804 25.8532 162.884 27.2861 163.202 28.7031C163.416 29.6956 163.835 30.6338 164.434 31.4586C165.041 32.3194 165.855 33.0175 166.802 33.4897ZM174.394 26.302C174.365 26.8609 174.326 27.4225 174.224 27.9678C174.149 28.3722 174.037 28.7678 173.87 29.1466C173.691 29.5519 173.441 29.8726 173.136 30.115C172.853 30.338 172.524 30.4948 172.156 30.5903C172.048 30.6183 171.937 30.641 171.823 30.6586C171.821 30.6588 171.819 30.6592 171.817 30.6595C171.752 30.6693 171.689 30.6783 171.625 30.6861C170.663 30.8037 169.739 30.6747 168.973 29.9588C168.521 29.5407 168.211 28.9948 168.083 28.3961C167.754 26.9793 167.774 25.5051 168.142 24.0976C168.296 23.5197 168.628 23.0035 169.092 22.6211C169.324 22.4299 169.583 22.2769 169.861 22.166C170.016 22.1038 170.177 22.0549 170.341 22.0199C170.471 21.9922 170.603 21.9727 170.737 21.9628C171.799 21.8972 172.755 22.1321 173.483 22.9626C173.867 23.4162 174.121 23.9638 174.215 24.5477C174.293 24.9792 174.326 25.4226 174.36 25.8657C174.37 26.0114 174.382 26.1569 174.394 26.302Z" fill="black"/>
<path fill-rule="evenodd" clip-rule="evenodd" d="M185.658 33.7534C186.876 34.2053 188.177 34.4032 189.477 34.3347C190.706 34.4046 191.935 34.2109 193.081 33.7666C194.611 33.1898 195.87 32.0698 196.609 30.6254C197.322 29.2779 197.501 27.8083 197.521 26.3191C197.552 25.229 197.398 24.1414 197.065 23.1017C196.583 21.665 195.752 20.4802 194.473 19.6194C193.341 18.8723 192.03 18.4309 190.672 18.3388C188.868 18.1853 187.085 18.2627 185.386 19.0277C184.136 19.5676 183.086 20.4759 182.379 21.6282C181.79 22.612 181.423 23.7099 181.304 24.8468C181.113 26.4358 181.175 27.9972 181.675 29.5258C181.934 30.3004 182.328 31.0241 182.84 31.6646C183.562 32.6094 184.537 33.3336 185.658 33.7534ZM192.599 25.616C192.624 25.8107 192.649 26.0055 192.677 26.1997L192.675 26.1931C192.675 26.1931 192.672 26.2248 192.671 26.2407C192.604 27.1423 192.537 28.0148 192.235 28.8672C192.108 29.2395 191.919 29.5548 191.684 29.8138C191.185 30.3674 190.475 30.6654 189.68 30.712C188.659 30.7737 187.731 30.5611 187.025 29.7633C186.531 29.2057 186.325 28.5246 186.213 27.803C186.011 26.5067 186.045 25.2248 186.444 23.9664C186.491 23.8175 186.551 23.6734 186.621 23.5354C186.814 23.1569 187.089 22.8236 187.43 22.5608C187.892 22.2037 188.455 21.9938 189.04 21.9589C190.004 21.9012 190.88 22.1269 191.593 22.8013C192.015 23.2048 192.299 23.7288 192.404 24.2997C192.448 24.5316 192.484 24.7649 192.515 24.9989C192.546 25.2042 192.573 25.4102 192.599 25.616Z" fill="black"/>
<path d="M136.909 12H135.051V40.7351H136.909V12Z" fill="black"/>
<path d="M14.9465 27.7992H11.5564V26.0398H14.9465C15.5368 26.0398 16.0139 25.9455 16.3777 25.7569C16.7414 25.5682 17.0068 25.309 17.1738 24.9788C17.3467 24.6429 17.4332 24.2597 17.4332 23.8295C17.4332 23.4228 17.3467 23.0426 17.1738 22.6889C17.0068 22.3294 16.7414 22.0406 16.3777 21.8225C16.0139 21.6044 15.5368 21.4954 14.9465 21.4954H12.2451V32.6001H10V19.7271H14.9465C15.9543 19.7271 16.81 19.9039 17.5137 20.2576C18.2233 20.6053 18.763 21.0887 19.1327 21.7075C19.5024 22.3205 19.6872 23.022 19.6872 23.8118C19.6872 24.6429 19.5024 25.3561 19.1327 25.9514C18.763 26.5467 18.2233 27.0036 17.5137 27.3217C16.81 27.6401 15.9543 27.7992 14.9465 27.7992ZM26.8341 30.6815V26.1193C26.8341 25.7775 26.7715 25.4828 26.6463 25.2352C26.5211 24.9877 26.3302 24.7961 26.0739 24.6605C25.8234 24.525 25.5073 24.4572 25.1257 24.4572C24.7739 24.4572 24.4698 24.5161 24.2133 24.634C23.9569 24.7519 23.7571 24.9111 23.614 25.1115C23.4709 25.3119 23.3993 25.5388 23.3993 25.7922H21.2526C21.2526 25.415 21.345 25.0496 21.5299 24.6959C21.7147 24.3423 21.9831 24.0269 22.335 23.7499C22.6868 23.4729 23.1072 23.2548 23.5962 23.0956C24.0851 22.9365 24.6337 22.8569 25.242 22.8569C25.9694 22.8569 26.6135 22.9777 27.1741 23.2194C27.7405 23.4611 28.1848 23.8265 28.5069 24.3157C28.8348 24.7991 28.9988 25.4062 28.9988 26.137V30.3897C28.9988 30.826 29.0286 31.2179 29.0883 31.5656C29.1539 31.9076 29.2463 32.2051 29.3655 32.4586V32.6001H27.1562C27.0548 32.3702 26.9743 32.0784 26.9147 31.7248C26.861 31.3653 26.8341 31.0174 26.8341 30.6815ZM27.1473 26.7825L27.1651 28.0998H25.6177C25.2181 28.0998 24.8663 28.1381 24.5622 28.2148C24.2581 28.2855 24.0047 28.3916 23.8018 28.5331C23.5991 28.6745 23.447 28.8455 23.3457 29.0458C23.2443 29.2462 23.1936 29.4732 23.1936 29.7267C23.1936 29.9801 23.2533 30.213 23.3725 30.4251C23.4917 30.6314 23.6647 30.7934 23.8913 30.9114C24.1239 31.0292 24.4041 31.0883 24.7321 31.0883C25.1734 31.0883 25.5581 30.9998 25.8861 30.823C26.2199 30.6402 26.4824 30.4192 26.6731 30.1598C26.864 29.8946 26.9653 29.6442 26.9773 29.4084L27.675 30.3544C27.6034 30.5961 27.4812 30.8554 27.3082 31.1324C27.1354 31.4095 26.9088 31.6747 26.6284 31.9282C26.3541 32.1757 26.0232 32.379 25.6356 32.5381C25.2539 32.6973 24.8127 32.777 24.3117 32.777C23.6796 32.777 23.1161 32.6531 22.6212 32.4056C22.1262 32.1521 21.7386 31.8132 21.4583 31.3889C21.178 30.9585 21.0379 30.4722 21.0379 29.9299C21.0379 29.4231 21.1333 28.9751 21.3242 28.5861C21.5209 28.1911 21.8072 27.8611 22.1828 27.5958C22.5645 27.3307 23.0296 27.1302 23.5783 26.9946C24.1269 26.8532 24.753 26.7825 25.4566 26.7825H27.1473ZM33.9184 31.5568L36.5483 23.0337H38.8561L34.9739 34.0589C34.8846 34.2947 34.7683 34.5511 34.6252 34.828C34.4819 35.1052 34.2941 35.3674 34.0615 35.615C33.8349 35.8684 33.5518 36.0718 33.2118 36.225C32.872 36.3842 32.4605 36.4637 31.9774 36.4637C31.7867 36.4637 31.6017 36.4461 31.4228 36.4107C31.25 36.3812 31.0859 36.3488 30.9308 36.3135L30.9219 34.6866C30.9815 34.6925 31.0531 34.6984 31.1366 34.7043C31.2261 34.7102 31.2976 34.7131 31.3512 34.7131C31.7091 34.7131 32.0073 34.669 32.2458 34.5806C32.4844 34.498 32.6782 34.3625 32.8273 34.1738C32.9823 33.9853 33.1135 33.7318 33.2207 33.4135L33.9184 31.5568ZM32.4337 23.0337L34.7324 30.1953L35.1171 32.4409L33.6233 32.8212L30.1079 23.0337H32.4337ZM44.6612 19.0198H46.8169V30.5578L46.6112 32.6001H44.6612V19.0198ZM53.132 27.7285V27.9142C53.132 28.6215 53.0514 29.2728 52.8904 29.8681C52.7354 30.4575 52.4968 30.9703 52.1749 31.4065C51.8588 31.8427 51.4652 32.1816 50.9941 32.4232C50.529 32.659 49.9894 32.777 49.3752 32.777C48.7729 32.777 48.2481 32.6649 47.8008 32.4409C47.3536 32.2169 46.9779 31.8986 46.6738 31.4861C46.3756 31.0734 46.1341 30.5813 45.9492 30.0096C45.7645 29.4378 45.6332 28.8072 45.5556 28.1175V27.5251C45.6332 26.8296 45.7645 26.199 45.9492 25.6331C46.1341 25.0614 46.3756 24.5692 46.6738 24.1566C46.9779 23.7381 47.3506 23.4169 47.7919 23.1929C48.2391 22.9689 48.7609 22.8569 49.3572 22.8569C49.9774 22.8569 50.523 22.9748 50.9941 23.2106C51.4712 23.4463 51.8677 23.7823 52.1838 24.2185C52.4999 24.6488 52.7354 25.1616 52.8904 25.7569C53.0514 26.3522 53.132 27.0095 53.132 27.7285ZM50.9762 27.9142V27.7285C50.9762 27.2983 50.9405 26.8945 50.8689 26.5173C50.7974 26.1341 50.6781 25.7981 50.5111 25.5093C50.3502 25.2205 50.1294 24.9936 49.8492 24.8285C49.5749 24.6576 49.2321 24.5721 48.8205 24.5721C48.4389 24.5721 48.1109 24.637 47.8366 24.7666C47.5624 24.8963 47.3327 25.0732 47.1478 25.2972C46.963 25.5211 46.8169 25.7804 46.7096 26.0751C46.6082 26.3699 46.5396 26.6881 46.5038 27.0301V28.6303C46.5575 29.0724 46.6708 29.4791 46.8437 29.8504C47.0226 30.2159 47.2731 30.5106 47.5952 30.7345C47.9171 30.9526 48.3315 31.0616 48.8385 31.0616C49.238 31.0616 49.5749 30.9821 49.8492 30.823C50.1234 30.6638 50.3411 30.4428 50.5022 30.1598C50.6692 29.871 50.7884 29.5351 50.8599 29.152C50.9374 28.7689 50.9762 28.3562 50.9762 27.9142ZM57.658 31.5568L60.2878 23.0337H62.5956L58.7135 34.0589C58.6241 34.2947 58.5078 34.5511 58.3647 34.828C58.2215 35.1052 58.0337 35.3674 57.8011 35.615C57.5745 35.8684 57.2914 36.0718 56.9514 36.225C56.6114 36.3842 56.2 36.4637 55.717 36.4637C55.5262 36.4637 55.3413 36.4461 55.1624 36.4107C54.9895 36.3812 54.8255 36.3488 54.6704 36.3135L54.6615 34.6866C54.7211 34.6925 54.7927 34.6984 54.8762 34.7043C54.9656 34.7102 55.0372 34.7131 55.0908 34.7131C55.4487 34.7131 55.7468 34.669 55.9854 34.5806C56.2239 34.498 56.4178 34.3625 56.5668 34.1738C56.7219 33.9853 56.853 33.7318 56.9603 33.4135L57.658 31.5568ZM56.1732 23.0337L58.472 30.1953L58.8567 32.4409L57.3629 32.8212L53.8475 23.0337H56.1732ZM73.4904 26.7825H70.1719L70.154 25.1645H73.0521C73.5411 25.1645 73.9555 25.0938 74.2954 24.9523C74.6413 24.805 74.9036 24.5957 75.0826 24.3246C75.2615 24.0476 75.3508 23.7145 75.3508 23.3255C75.3508 22.8952 75.2675 22.5445 75.1005 22.2734C74.9335 22.0023 74.677 21.8048 74.3312 21.681C73.9913 21.5572 73.556 21.4954 73.0253 21.4954H70.8517V32.6001H68.6065V19.7271H73.0253C73.7409 19.7271 74.3789 19.7949 74.9395 19.9304C75.5059 20.066 75.986 20.2782 76.3796 20.567C76.7791 20.8499 77.0803 21.2095 77.283 21.6457C77.4916 22.0818 77.5961 22.6005 77.5961 23.2017C77.5961 23.7322 77.4679 24.2185 77.2114 24.6605C76.9549 25.0967 76.5764 25.4533 76.0754 25.7304C75.5745 26.0074 74.9514 26.1725 74.2059 26.2255L73.4904 26.7825ZM73.392 32.6001H69.4653L70.476 30.8407H73.392C73.8989 30.8407 74.3222 30.7581 74.6622 30.5931C75.0021 30.4221 75.2555 30.1893 75.4225 29.8946C75.5954 29.594 75.6819 29.2433 75.6819 28.8425C75.6819 28.424 75.6073 28.0615 75.4582 27.755C75.3092 27.4426 75.0737 27.2039 74.7516 27.0388C74.4296 26.8679 74.0092 26.7825 73.4904 26.7825H70.968L70.9859 25.1645H74.2686L74.7784 25.7745C75.4941 25.7981 76.0813 25.9544 76.5405 26.2432C77.0057 26.532 77.3516 26.9062 77.5782 27.366C77.8048 27.8257 77.918 28.3209 77.918 28.8514C77.918 29.6707 77.7362 30.3573 77.3724 30.9114C77.0147 31.4655 76.4988 31.8868 75.825 32.1757C75.1512 32.4586 74.3401 32.6001 73.392 32.6001ZM85.4228 30.6815V26.1193C85.4228 25.7775 85.3602 25.4828 85.2349 25.2352C85.1097 24.9877 84.9189 24.7961 84.6625 24.6605C84.412 24.525 84.0959 24.4572 83.7143 24.4572C83.3625 24.4572 83.0584 24.5161 82.8019 24.634C82.5456 24.7519 82.3458 24.9111 82.2027 25.1115C82.0596 25.3119 81.988 25.5388 81.988 25.7922H79.8413C79.8413 25.415 79.9336 25.0496 80.1186 24.6959C80.3033 24.3423 80.5718 24.0269 80.9235 23.7499C81.2753 23.4729 81.6957 23.2548 82.1848 23.0956C82.6738 22.9365 83.2223 22.8569 83.8306 22.8569C84.5581 22.8569 85.2021 22.9777 85.7627 23.2194C86.3292 23.4611 86.7734 23.8265 87.0954 24.3157C87.4235 24.7991 87.5874 25.4062 87.5874 26.137V30.3897C87.5874 30.826 87.6173 31.2179 87.6769 31.5656C87.7425 31.9076 87.8348 32.2051 87.9542 32.4586V32.6001H85.7448C85.6435 32.3702 85.5629 32.0784 85.5033 31.7248C85.4497 31.3653 85.4228 31.0174 85.4228 30.6815ZM85.7359 26.7825L85.7538 28.0998H84.2062C83.8068 28.0998 83.4549 28.1381 83.1508 28.2148C82.8466 28.2855 82.5932 28.3916 82.3905 28.5331C82.1877 28.6745 82.0357 28.8455 81.9343 29.0458C81.833 29.2462 81.7823 29.4732 81.7823 29.7267C81.7823 29.9801 81.8419 30.213 81.9611 30.4251C82.0804 30.6314 82.2534 30.7934 82.48 30.9114C82.7126 31.0292 82.9928 31.0883 83.3208 31.0883C83.7621 31.0883 84.1466 30.9998 84.4746 30.823C84.8086 30.6402 85.0709 30.4192 85.2618 30.1598C85.4526 29.8946 85.554 29.6442 85.5659 29.4084L86.2637 30.3544C86.192 30.5961 86.0698 30.8554 85.8969 31.1324C85.7239 31.4095 85.4973 31.6747 85.2171 31.9282C84.9427 32.1757 84.6118 32.379 84.2241 32.5381C83.8425 32.6973 83.4012 32.777 82.9004 32.777C82.2683 32.777 81.7047 32.6531 81.2097 32.4056C80.7149 32.1521 80.3272 31.8132 80.0469 31.3889C79.7666 30.9585 79.6265 30.4722 79.6265 29.9299C79.6265 29.4231 79.7219 28.9751 79.9128 28.5861C80.1095 28.1911 80.3957 27.8611 80.7714 27.5958C81.153 27.3307 81.6182 27.1302 82.1668 26.9946C82.7155 26.8532 83.3416 26.7825 84.0453 26.7825H85.7359ZM91.9793 25.0761V32.6001H89.8236V23.0337H91.8541L91.9793 25.0761ZM91.5947 27.4633L90.897 27.4544C90.903 26.7766 90.9983 26.1548 91.1832 25.5888C91.3741 25.023 91.6364 24.5368 91.9704 24.1301C92.3103 23.7234 92.7158 23.411 93.1869 23.1929C93.658 22.9689 94.1828 22.8569 94.7612 22.8569C95.2263 22.8569 95.6467 22.9218 96.0224 23.0514C96.404 23.1752 96.729 23.3786 96.9974 23.6615C97.2717 23.9444 97.4805 24.3128 97.6236 24.7666C97.7667 25.2146 97.8382 25.7657 97.8382 26.4199V32.6001H95.6735V26.4111C95.6735 25.9514 95.605 25.5888 95.4678 25.3237C95.3366 25.0525 95.1428 24.861 94.8865 24.749C94.636 24.6311 94.3228 24.5721 93.9471 24.5721C93.5775 24.5721 93.2465 24.6488 92.9543 24.802C92.6622 24.9553 92.4146 25.1645 92.2119 25.4298C92.0152 25.695 91.863 26.0015 91.7558 26.3492C91.6484 26.697 91.5947 27.0684 91.5947 27.4633ZM102.212 19.0198V32.6001H100.048V19.0198H102.212ZM108.223 23.0337L104.01 27.649L101.702 29.9831L101.139 28.1795L102.883 26.0486L105.62 23.0337H108.223ZM106.085 32.6001L102.946 28.1087L104.305 26.6145L108.581 32.6001H106.085Z" fill="black"/>
<path fill-rule="evenodd" clip-rule="evenodd" d="M117.528 23.3496C117.528 21.4293 119.103 19.8726 121.046 19.8726C122.989 19.8726 124.564 21.4293 124.564 23.3496V24.3337C125.004 24.3337 125.36 24.6862 125.36 25.121V30.2382C125.36 30.6729 125.004 31.0255 124.564 31.0255H117.528C117.088 31.0255 116.732 30.6729 116.732 30.2382V25.121C116.732 24.6862 117.088 24.3337 117.528 24.3337V23.3496ZM118.856 24.3337H123.236V23.3496C123.236 22.1539 122.256 21.1847 121.046 21.1847C119.836 21.1847 118.856 22.1539 118.856 23.3496V24.3337ZM121.71 27.757C121.913 27.5769 122.042 27.315 122.042 27.0235C122.042 26.4801 121.596 26.0395 121.046 26.0395C120.496 26.0395 120.05 26.4801 120.05 27.0235C120.05 27.315 120.179 27.5769 120.382 27.757V29.3853C120.382 29.494 120.471 29.5821 120.581 29.5821H121.511C121.62 29.5821 121.71 29.494 121.71 29.3853V27.757Z" fill="black"/>
</svg>
